<?xml version="1.0" encoding="utf-8"?>
<svg viewBox="0 0 500 500" xmlns="http://www.w3.org/2000/svg">
  <path d="M 413.451 32.401 L 80.117 32.401 C 61.68 32.401 46.784 47.297 46.784 65.734 L 46.784 399.068 C 46.784 417.505 61.68 432.401 80.117 432.401 L 413.451 432.401 C 431.888 432.401 446.784 417.505 446.784 399.068 L 446.784 65.734 C 446.784 47.297 431.888 32.401 413.451 32.401 Z M 417.617 394.901 C 417.617 399.484 413.867 403.234 409.284 403.234 L 84.284 403.234 C 79.701 403.234 75.951 399.484 75.951 394.901 L 75.951 69.901 C 75.951 65.318 79.701 61.568 84.284 61.568 L 409.284 61.568 C 413.867 61.568 417.617 65.318 417.617 69.901 L 417.617 394.901 Z" style="fill: rgb(255, 255, 255);"/>
  <path d="M 358.867 166.672 L 340.534 147.818 C 339.805 146.984 338.659 146.568 337.617 146.568 C 336.472 146.568 335.43 146.984 334.701 147.818 L 207.617 275.838 L 161.367 229.588 C 160.534 228.755 159.492 228.338 158.451 228.338 C 157.409 228.338 156.367 228.755 155.534 229.588 L 136.992 248.13 C 135.326 249.797 135.326 252.401 136.992 254.068 L 195.326 312.401 C 199.076 316.151 203.659 318.338 207.513 318.338 C 213.034 318.338 217.826 314.276 219.597 312.609 L 219.701 312.609 L 358.972 172.609 C 360.43 170.838 360.43 168.234 358.867 166.672 Z" style="fill: rgb(0, 198, 43);"/>
</svg>