<svg width="26" height="26" viewBox="0 0 26 26" fill="none" xmlns="http://www.w3.org/2000/svg">
<path d="M12.8726 20.2046C8.90241 20.2046 5.68361 16.9806 5.68361 13H8.20301L4.29521 7.04083L0.26001 13H3.03421C3.03421 18.4444 7.43861 22.8566 12.8726 22.8566C15.5454 22.8566 17.9686 21.788 19.7418 20.0564L18.2546 17.7762C16.939 19.2634 15.015 20.2046 12.8726 20.2046ZM22.7136 13C22.7136 7.55563 18.3092 3.14343 12.8752 3.14343C10.2804 3.14343 7.91961 4.14963 6.16201 5.79543L7.64141 8.06263C8.95181 6.66643 10.8134 5.79543 12.8778 5.79543C16.848 5.79543 20.0668 9.01943 20.0668 13H17.7996L21.7074 18.9592L25.74 13H22.7136Z" fill="#F9F9F9"/>
</svg>
