<svg width="30" height="30" viewBox="0 0 30 30" fill="none" xmlns="http://www.w3.org/2000/svg">
<path d="M14.853 23.313C10.272 23.313 6.55799 19.593 6.55799 15H9.46499L4.95599 8.12395L0.299988 15H3.50099C3.50099 21.282 8.58299 26.373 14.853 26.373C17.937 26.373 20.733 25.14 22.779 23.142L21.063 20.511C19.545 22.227 17.325 23.313 14.853 23.313ZM26.208 15C26.208 8.71795 21.126 3.62695 14.856 3.62695C11.862 3.62695 9.13799 4.78795 7.10999 6.68695L8.81699 9.30295C10.329 7.69195 12.477 6.68695 14.859 6.68695C19.44 6.68695 23.154 10.407 23.154 15H20.538L25.047 21.876L29.7 15H26.208Z" fill="#F9F9F9"/>
</svg>
