<svg width="15" height="15" viewBox="0 0 15 15" fill="none" xmlns="http://www.w3.org/2000/svg">
<circle cx="7.5" cy="7.5" r="7.5" fill="#C4C4C4"/>
<path d="M6.67461 10.4375H7.93058V11.75H6.67461V10.4375ZM7.51192 3C9.75172 3.09625 10.7272 5.45875 9.39586 7.23063C9.04838 7.66813 8.48738 7.95687 8.21107 8.32438C7.93058 8.6875 7.93058 9.125 7.93058 9.5625H6.67461C6.67461 8.83187 6.67461 8.215 6.95511 7.7775C7.23142 7.34 7.79242 7.08187 8.1399 6.79313C9.15304 5.81313 8.90185 4.42625 7.51192 4.3125C7.17884 4.3125 6.85937 4.45078 6.62382 4.69692C6.38828 4.94306 6.25596 5.2769 6.25596 5.625H5C5 4.92881 5.26465 4.26113 5.73573 3.76884C6.2068 3.27656 6.84572 3 7.51192 3Z" fill="#F1F1F1"/>
</svg>
