<?xml version="1.0" encoding="utf-8"?>
<svg viewBox="0 0 500 500" xmlns="http://www.w3.org/2000/svg">
  <path d="M 413.451 32.401 L 80.117 32.401 C 61.68 32.401 46.784 47.297 46.784 65.734 L 46.784 399.068 C 46.784 417.505 61.68 432.401 80.117 432.401 L 413.451 432.401 C 431.888 432.401 446.784 417.505 446.784 399.068 L 446.784 65.734 C 446.784 47.297 431.888 32.401 413.451 32.401 Z M 417.617 394.901 C 417.617 399.484 413.867 403.234 409.284 403.234 L 84.284 403.234 C 79.701 403.234 75.951 399.484 75.951 394.901 L 75.951 69.901 C 75.951 65.318 79.701 61.568 84.284 61.568 L 409.284 61.568 C 413.867 61.568 417.617 65.318 417.617 69.901 L 417.617 394.901 Z" style="fill: rgb(255, 255, 255);"/>
</svg>