<svg width="40" height="40" viewBox="0 0 40 40" fill="none" xmlns="http://www.w3.org/2000/svg">
<path d="M19.804 31.0839C13.696 31.0839 8.74402 26.1239 8.74402 19.9999H12.62L6.60802 10.8319L0.400024 19.9999H4.66802C4.66802 28.3759 11.444 35.1639 19.804 35.1639C23.916 35.1639 27.644 33.5199 30.372 30.8559L28.084 27.3479C26.06 29.6359 23.1 31.0839 19.804 31.0839ZM34.944 19.9999C34.944 11.6239 28.168 4.83594 19.808 4.83594C15.816 4.83594 12.184 6.38394 9.48002 8.91594L11.756 12.4039C13.772 10.2559 16.636 8.91594 19.812 8.91594C25.92 8.91594 30.872 13.8759 30.872 19.9999H27.384L33.396 29.1679L39.6 19.9999H34.944Z" fill="#F9F9F9"/>
</svg>
