<svg width="19" height="22" viewBox="0 0 19 22" fill="none" xmlns="http://www.w3.org/2000/svg">
<path d="M15.8866 21.9961C15.8816 21.991 15.7909 21.9738 15.6837 21.96C14.5388 21.795 13.6216 21.0094 13.2636 19.8885C13.1035 19.3917 13.0689 18.8295 13.1646 18.3413C13.1893 18.2106 13.1926 18.1728 13.1761 18.1556C13.1415 18.1195 5.01178 13.2338 4.98704 13.2338C4.97384 13.2338 4.91115 13.2819 4.84516 13.3386C4.24137 13.8819 3.35383 14.1501 2.56033 14.0332C2.10996 13.9661 1.6134 13.7615 1.25377 13.4951C0.687924 13.0756 0.277149 12.4447 0.10723 11.7381C0.0593891 11.537 0 11.1313 0 10.9989C0 10.8665 0.0593891 10.4608 0.10723 10.2597C0.277149 9.55314 0.687924 8.92222 1.25377 8.50276C1.6134 8.2363 2.10996 8.03172 2.56033 7.96467C3.35548 7.84777 4.21168 8.10392 4.84021 8.6506C4.91115 8.71249 4.97879 8.76407 4.99033 8.76407C5.01343 8.76407 13.1448 3.87489 13.1761 3.84223C13.1926 3.82503 13.1893 3.78549 13.1613 3.64968C13.1299 3.50012 13.125 3.42448 13.125 3.07378C13.125 2.7162 13.1283 2.64916 13.1613 2.48928C13.2652 1.99417 13.4714 1.53517 13.7585 1.15868C14.2204 0.553549 14.8902 0.15987 15.6672 0.0395316C15.9278 -0.00172725 16.1043 -0.0103228 16.238 0.0120257C16.304 0.0223404 16.4128 0.0395316 16.4805 0.0498464C17.7524 0.245826 18.7653 1.30137 18.9534 2.62681C18.9633 2.69729 18.9798 2.81075 18.9897 2.87952C19.0161 3.05487 18.9913 3.354 18.922 3.70641C18.8478 4.07603 18.6861 4.47314 18.4783 4.79462C18.051 5.4582 17.3911 5.91205 16.6009 6.08568C16.4442 6.12006 16.3765 6.12522 16.0433 6.12522C15.7117 6.1235 15.6424 6.11834 15.4907 6.08568C14.999 5.97393 14.519 5.73841 14.1824 5.43929C14.1016 5.3688 14.0587 5.3413 14.034 5.34646C13.996 5.35333 5.88117 10.2305 5.84158 10.2683C5.82343 10.2872 5.82343 10.3164 5.84818 10.4505C5.90592 10.7892 5.90592 11.2087 5.84818 11.5473C5.82343 11.6814 5.82343 11.7106 5.84158 11.7295C5.88117 11.7674 13.996 16.6428 14.034 16.6514C14.0587 16.6565 14.1 16.6308 14.1742 16.5654C14.5157 16.2629 15.0007 16.0239 15.4907 15.9122C15.6424 15.8795 15.7117 15.8743 16.0433 15.8726C16.3782 15.8726 16.4442 15.8778 16.6042 15.9122C17.8761 16.1907 18.7686 17.1843 18.9666 18.5407C19.0804 19.3229 18.8214 20.2392 18.3017 20.8839C17.7557 21.5629 16.9787 21.9497 16.0681 21.9961C15.9724 22.0013 15.8915 22.0013 15.8866 21.9961Z" fill="#E8E8E8"/>
</svg>
