<svg width="25" height="29" viewBox="0 0 25 29" fill="none" xmlns="http://www.w3.org/2000/svg">
<path d="M20.9034 28.9949C20.8969 28.9881 20.7775 28.9654 20.6364 28.9473C19.13 28.7298 17.9231 27.6942 17.4521 26.2166C17.2415 25.5617 17.1959 24.8207 17.3218 24.1771C17.3544 24.0049 17.3587 23.9551 17.337 23.9324C17.2914 23.8848 6.59445 17.4445 6.56189 17.4445C6.54452 17.4445 6.46204 17.508 6.37521 17.5828C5.58075 18.2988 4.41294 18.6524 3.36886 18.4983C2.77627 18.4099 2.1229 18.1402 1.6497 17.789C0.905163 17.236 0.36467 16.4044 0.141093 15.473C0.0781436 15.2079 0 14.6731 0 14.4986C0 14.3241 0.0781436 13.7893 0.141093 13.5241C0.36467 12.5928 0.905163 11.7611 1.6497 11.2082C2.1229 10.8569 2.77627 10.5873 3.36886 10.4989C4.41511 10.3448 5.54168 10.6824 6.3687 11.4031C6.46204 11.4846 6.55104 11.5526 6.56623 11.5526C6.59662 11.5526 17.2958 5.10781 17.337 5.06475C17.3587 5.04209 17.3544 4.98997 17.3175 4.81095C17.2762 4.61379 17.2697 4.51409 17.2697 4.0518C17.2697 3.58045 17.2741 3.49207 17.3175 3.28132C17.4542 2.62868 17.7256 2.02363 18.1033 1.52735C18.711 0.729678 19.5923 0.210738 20.6147 0.0521099C20.9577 -0.00227683 21.1899 -0.0136074 21.3658 0.0158521C21.4526 0.0294488 21.5958 0.0521099 21.6848 0.0657066C23.3584 0.324043 24.6912 1.71544 24.9387 3.46261C24.9517 3.55552 24.9734 3.70508 24.9864 3.79573C25.0211 4.02687 24.9886 4.42118 24.8974 4.88573C24.7997 5.37294 24.587 5.89641 24.3135 6.32018C23.7513 7.1949 22.883 7.79315 21.8433 8.02203C21.6371 8.06735 21.5481 8.07415 21.1096 8.07415C20.6733 8.07188 20.5821 8.06508 20.3824 8.02203C19.7356 7.87473 19.1039 7.56427 18.6611 7.16997C18.5548 7.07706 18.4983 7.0408 18.4658 7.0476C18.4158 7.05666 7.73838 13.4856 7.68629 13.5355C7.66241 13.5604 7.66241 13.5989 7.69497 13.7757C7.77094 14.2221 7.77094 14.775 7.69497 15.2215C7.66241 15.3982 7.66241 15.4367 7.68629 15.4617C7.73838 15.5115 18.4158 21.9382 18.4658 21.9496C18.4983 21.9564 18.5526 21.9224 18.6503 21.8363C19.0996 21.4374 19.7378 21.1224 20.3824 20.9751C20.5821 20.9321 20.6733 20.9253 21.1096 20.923C21.5503 20.923 21.6371 20.9298 21.8476 20.9751C23.5212 21.3422 24.6955 22.6521 24.956 24.44C25.1058 25.4711 24.765 26.6789 24.0812 27.5287C23.3628 28.4238 22.3404 28.9337 21.1422 28.9949C21.0163 29.0017 20.9099 29.0017 20.9034 28.9949Z" fill="#E8E8E8"/>
</svg>
